HIERARCHY
ROOT Hips
{
	OFFSET	0.00	0.00	0.00
	CHANNELS 6 Xposition Yposition Zposition Zrotation Xrotation Yrotation
	JOINT LeftUpLeg
	{
		OFFSET	 0.126116	-0.014019	-0.065224
		CHANNELS 3 Zrotation Xrotation Yrotation
		JOINT LeftLeg
		{
			OFFSET	 0.000000	 0.000000	 0.569914
			CHANNELS 3 Zrotation Xrotation Yrotation
			JOINT LeftFoot
			{
				OFFSET	 0.000000	 0.000000	 0.544423
				CHANNELS 3 Zrotation Xrotation Yrotation
				JOINT LeftToeBase
				{
					OFFSET	 0.000000	 0.000000	 0.207117
					CHANNELS 3 Zrotation Xrotation Yrotation
					End Site
					{
						OFFSET	 0.000000	 0.000000	 0.207117
					}
				}
			}
		}
	}
	JOINT RightUpLeg
	{
		OFFSET	-0.124023	-0.008373	-0.065224
		CHANNELS 3 Zrotation Xrotation Yrotation
		JOINT RightLeg
		{
			OFFSET	 0.000000	 0.000000	 0.570047
			CHANNELS 3 Zrotation Xrotation Yrotation
			JOINT RightFoot
			{
				OFFSET	 0.000000	 0.000000	 0.544354
				CHANNELS 3 Zrotation Xrotation Yrotation
				JOINT RightToeBase
				{
					OFFSET	 0.000000	 0.000000	 0.207540
					CHANNELS 3 Zrotation Xrotation Yrotation
					End Site
					{
						OFFSET	 0.000000	 0.000000	 0.207540
					}
				}
			}
		}
	}
	JOINT Spine
	{
		OFFSET	 0.000184	-0.007763	 0.117403
		CHANNELS 3 Zrotation Xrotation Yrotation
		JOINT Spine1
		{
			OFFSET	 0.000000	 0.000000	 0.137269
			CHANNELS 3 Zrotation Xrotation Yrotation
			JOINT Spine2
			{
				OFFSET	 0.000000	 0.000000	 0.156879
				CHANNELS 3 Zrotation Xrotation Yrotation
				JOINT LeftShoulder
				{
					OFFSET	 0.080501	-0.002496	 0.160144
					CHANNELS 3 Zrotation Xrotation Yrotation
					JOINT LeftArm
					{
						OFFSET	 0.000000	 0.000000	 0.164363
						CHANNELS 3 Zrotation Xrotation Yrotation
						JOINT LeftForeArm
						{
							OFFSET	 0.000000	 0.000000	 0.364576
							CHANNELS 3 Zrotation Xrotation Yrotation
							JOINT LeftHand
							{
								OFFSET	 0.000000	 0.000000	 0.360812
								CHANNELS 3 Zrotation Xrotation Yrotation
								JOINT LeftHandIndex1
								{
									OFFSET	 0.000000	 0.000000	 0.086006
									CHANNELS 3 Zrotation Xrotation Yrotation
									JOINT LeftHandIndex2
									{
										OFFSET	 0.000000	 0.000000	 0.047236
										CHANNELS 3 Zrotation Xrotation Yrotation
										JOINT LeftHandIndex3
										{
											OFFSET	-0.004284	-0.000551	 0.038166
											CHANNELS 3 Zrotation Xrotation Yrotation
											End Site
											{
												OFFSET	-0.004284	-0.000551	 0.038166
											}
										}
									}
								}
							}
						}
					}
				}
				JOINT Neck
				{
					OFFSET	 0.000000	 0.000000	 0.176489
					CHANNELS 3 Zrotation Xrotation Yrotation
					JOINT Head
					{
						OFFSET	 0.000000	-0.001747	 0.077940
						CHANNELS 3 Zrotation Xrotation Yrotation
						End Site
						{
							OFFSET	 0.000000	-0.001747	 0.077940
						}
					}
				}
				JOINT RightShoulder
				{
					OFFSET	-0.080363	 0.000306	 0.159706
					CHANNELS 3 Zrotation Xrotation Yrotation
					JOINT RightArm
					{
						OFFSET	 0.000000	 0.000000	 0.164196
						CHANNELS 3 Zrotation Xrotation Yrotation
						JOINT RightForeArm
						{
							OFFSET	 0.000000	 0.000000	 0.365611
							CHANNELS 3 Zrotation Xrotation Yrotation
							JOINT RightHand
							{
								OFFSET	 0.000000	 0.000000	 0.360648
								CHANNELS 3 Zrotation Xrotation Yrotation
								JOINT RightHandIndex1
								{
									OFFSET	 0.000000	 0.000000	 0.069977
									CHANNELS 3 Zrotation Xrotation Yrotation
									JOINT RightHandIndex2
									{
										OFFSET	 0.000000	 0.000000	 0.052305
										CHANNELS 3 Zrotation Xrotation Yrotation
										JOINT RightHandIndex3
										{
											OFFSET	 0.009002	-0.000782	 0.042196
											CHANNELS 3 Zrotation Xrotation Yrotation
											End Site
											{
												OFFSET	 0.009002	-0.000782	 0.042196
											}
										}
									}
								}
							}
						}
					}
				}
			}
		}
	}
}
MOTION
Frames:    6
Frame Time: 0.03333334
-0.000079	 0.031156	 1.225543	-0.005067	 0.005264	 0.076786	 9.444288	-13.615730	 177.249800	 0.831207	-34.737900	-2.286178	-25.069010	 81.395170	 19.586920	-2.385833	 28.452760	 0.000004	-9.600658	-14.272760	-177.479600	-0.821342	-34.910990	 2.258648	 22.999450	 81.106960	-17.624580	 2.384658	 28.388730	 0.000004	-12.580650	 3.643209	 0.241650	-0.839985	 0.469186	-0.483034	 2.543706	-0.577834	 0.480655	-91.776230	 78.527430	-180.000000	 51.062340	 36.591300	-50.443180	-25.219860	 3.284503	-9.963140	-28.633020	 1.604002	-4.250416	-2.635965	 4.993658	 6.788941	-5.165319	 0.784187	 3.516649	-5.225038	 0.466231	 0.424329	-0.000002	-3.783157	-0.089647	 2.527733	 6.892660	-0.152265	 89.782120	 78.203870	 180.000000	 4.314699	 12.993040	 103.949500	-17.270620	 2.953937	 10.082500	 3.647777	 1.076081	-6.121355	 6.112037	 4.509576	-0.364401	 4.968462	 1.518543	-9.347576	 5.168945	 0.703820	 2.021906
-0.000061	 0.031795	 1.226313	-0.005475	 0.005598	 0.091635	 9.448232	-13.505660	 177.230900	 0.843243	-34.488510	-2.264981	-24.622810	 81.276380	 19.134460	-2.385833	 28.452760	 0.000004	-9.610271	-14.180070	-177.493100	-0.833781	-34.650720	 2.236847	 22.500550	 80.956090	-17.118760	 2.384658	 28.388730	 0.000004	-11.521160	 3.590163	 0.232528	-1.046181	 0.639883	-0.503889	 3.165915	-0.772288	 0.561998	-91.776170	 78.527450	 180.000000	 51.100010	 36.615620	-50.399120	-25.417640	 3.355729	-10.065820	-28.633270	 1.603973	-4.250416	-2.635965	 4.993658	 6.788941	-5.165319	 0.784187	 3.516649	-5.225038	 0.466231	 0.424329	-0.000002	-3.783157	-0.089647	 3.145129	 6.762206	-0.185874	 89.782110	 78.203830	 180.000000	 4.265011	 13.186110	 103.987300	-17.228260	 3.024391	 10.183510	 3.666989	 0.948294	-6.187138	 6.112037	 4.509576	-0.364401	 4.968462	 1.518543	-9.347576	 5.168945	 0.703820	 2.021906
-0.000033	 0.032397	 1.227005	-0.005532	 0.005552	 0.103827	 9.451867	-13.405320	 177.215100	 0.854062	-34.261750	-2.245816	-24.226080	 81.167760	 18.732010	-2.385833	 28.452760	 0.000004	-9.618980	-14.097700	-177.504500	-0.844919	-34.414830	 2.217201	 22.055810	 80.817250	-16.667560	 2.384658	 28.388730	 0.000004	-10.184520	 3.536955	 0.258578	-1.232089	 0.823960	-0.583458	 3.728041	-0.989741	 0.669152	-91.776250	 78.527450	-180.000000	 51.198170	 36.663960	-50.427410	-25.597060	 3.419981	-10.157410	-28.642940	 1.602669	-4.251970	-2.635965	 4.993658	 6.788941	-5.165319	 0.784187	 3.516649	-5.225038	 0.466231	 0.424329	-0.000002	-3.783157	-0.089647	 3.700637	 6.614044	-0.213920	 89.782150	 78.203870	 180.000000	 4.070119	 13.414410	 103.982600	-17.217130	 3.088440	 10.277340	 3.718417	 0.868026	-6.244577	 6.112037	 4.509576	-0.364401	 4.968462	 1.518543	-9.347576	 5.168945	 0.703820	 2.021906
 0.000032	 0.033022	 1.227583	-0.005280	 0.005135	 0.114892	 9.454493	-13.323130	 177.201500	 0.862978	-34.073040	-2.229945	-23.896340	 81.075780	 18.397290	-2.385833	 28.452760	 0.000004	-9.626789	-14.036650	-177.516300	-0.854128	-34.217730	 2.200871	 21.667880	 80.693610	-16.273780	 2.384658	 28.388730	 0.000004	-8.354152	 3.470277	 0.284059	-1.419472	 1.056097	-0.658492	 4.294722	-1.265565	 0.781976	-91.776160	 78.527430	 180.000000	 51.379330	 36.753170	-50.548980	-25.760830	 3.479835	-10.241540	-28.665030	 1.599740	-4.255512	-2.635965	 4.993658	 6.788941	-5.165319	 0.784187	 3.516649	-5.225038	 0.466231	 0.424329	-0.000002	-3.783157	-0.089647	 4.257987	 6.430618	-0.239323	 89.782160	 78.203830	 179.999900	 4.056529	 13.588430	 103.943700	-17.166610	 3.147955	 10.364610	 2.916822	 1.118535	-6.262033	 6.112037	 4.509576	-0.364401	 4.968462	 1.518543	-9.347576	 5.168945	 0.703820	 2.021906
 0.000105	 0.033649	 1.228196	-0.004729	 0.004422	 0.123913	 9.457735	-13.233090	 177.189600	 0.872513	-33.869190	-2.212882	-23.549840	 80.976490	 18.045510	-2.385833	 28.452760	 0.000004	-9.634749	-13.969290	-177.526000	-0.863856	-34.007170	 2.183517	 21.270380	 80.563220	-15.870060	 2.384658	 28.388730	 0.000004	-6.120160	 3.395250	 0.305814	-1.589293	 1.318320	-0.720663	 4.808338	-1.579378	 0.889953	-91.776140	 78.527420	 180.000000	 51.653590	 36.895930	-50.794830	-25.868760	 3.521557	-10.299310	-28.700790	 1.594996	-4.261272	-2.635965	 4.993658	 6.788941	-5.165319	 0.784187	 3.516649	-5.225038	 0.466231	 0.424329	-0.000002	-3.783157	-0.089647	 4.760018	 6.228096	-0.259126	 89.782140	 78.203890	 180.000000	 3.052009	 14.062090	 103.757200	-16.457050	 3.193706	 10.420170	 1.823435	 1.237278	-6.202766	 6.112037	 4.509576	-0.364401	 4.968462	 1.518543	-9.347576	 5.168945	 0.703820	 2.021906
 0.000122	 0.034341	 1.229367	-0.004021	 0.003559	 0.131199	 9.466659	-13.047060	 177.174400	 0.891111	-33.465500	-2.179330	-22.914170	 80.784180	 17.400170	-2.385833	 28.452760	 0.000004	-9.647262	-13.806460	-177.529100	-0.882453	-33.598870	 2.150096	 20.628310	 80.339770	-15.217520	 2.384658	 28.388730	 0.000004	-3.564354	 3.314938	 0.322636	-1.736089	 1.599542	-0.768539	 5.252362	-1.918566	 0.989542	-91.776210	 78.527470	-180.000000	 52.004610	 37.082110	-51.148370	-25.895680	 3.530372	-10.311720	-28.749010	 1.588679	-4.269063	-2.635965	 4.993658	 6.788941	-5.165319	 0.784187	 3.516649	-5.225038	 0.466231	 0.424329	-0.000002	-3.783157	-0.089647	 5.190619	 6.016383	-0.272972	 89.782100	 78.203870	 180.000000	-0.835957	 15.077230	 103.309000	-14.845100	 3.217714	 10.433760	 1.866347	 0.709287	-6.107526	 6.112037	 4.509576	-0.364401	 4.968462	 1.518543	-9.347576	 5.168945	 0.703820	 2.021906
